<svg width="22" height="10" viewBox="0 0 22 10" fill="none" xmlns="http://www.w3.org/2000/svg">
<path d="M3.156 7.728V5.436H0.852V4.116H3.156V1.824H4.524V4.116H6.828V5.436H4.524V7.728H3.156ZM11.4078 9.144C10.0718 9.144 8.99978 8.652 8.19178 7.668L9.22378 6.708C9.84778 7.444 10.5838 7.812 11.4318 7.812C11.8558 7.812 12.2038 7.696 12.4758 7.464C12.7478 7.224 12.8838 6.908 12.8838 6.516C12.8838 6.108 12.7078 5.792 12.3558 5.568C12.0118 5.336 11.5438 5.22 10.9518 5.22H10.2678L10.0278 4.296L12.2958 1.884H8.65978V0.599999H14.2158V1.704L11.8758 4.104C12.6118 4.208 13.2078 4.456 13.6638 4.848C14.1198 5.232 14.3478 5.78 14.3478 6.492C14.3478 7.268 14.0718 7.904 13.5198 8.4C12.9758 8.896 12.2718 9.144 11.4078 9.144ZM15.6818 9V7.836L18.5738 5.376C19.1658 4.88 19.5738 4.472 19.7978 4.152C20.0298 3.824 20.1458 3.476 20.1458 3.108C20.1458 2.708 20.0178 2.392 19.7618 2.16C19.5058 1.92 19.1818 1.8 18.7898 1.8C18.4218 1.8 18.0898 1.9 17.7938 2.1C17.5058 2.3 17.1898 2.62 16.8458 3.06L15.8018 2.244C16.2338 1.636 16.6778 1.192 17.1338 0.912C17.5978 0.624 18.1858 0.48 18.8978 0.48C19.7218 0.48 20.3898 0.712 20.9018 1.176C21.4138 1.64 21.6698 2.252 21.6698 3.012C21.6698 3.34 21.6298 3.636 21.5498 3.9C21.4698 4.156 21.3258 4.42 21.1178 4.692C20.9178 4.956 20.6978 5.2 20.4578 5.424C20.2258 5.64 19.9018 5.92 19.4858 6.264L17.7578 7.704H21.7538V9H15.6818Z" fill="#02B033"/>
</svg>
