<svg width="90" height="80" viewBox="0 0 90 80" fill="none" xmlns="http://www.w3.org/2000/svg">
<rect width="90" height="80" fill="white"/>
<path d="M54 33C54 33.5304 53.7893 34.0391 53.4142 34.4142C53.0391 34.7893 52.5304 35 52 35H40L36 39V23C36 22.4696 36.2107 21.9609 36.5858 21.5858C36.9609 21.2107 37.4696 21 38 21H52C52.5304 21 53.0391 21.2107 53.4142 21.5858C53.7893 21.9609 54 22.4696 54 23V33Z" stroke="#181818" stroke-width="2" stroke-linecap="round" stroke-linejoin="round"/>
<path d="M33.3999 61.144C32.1839 61.144 31.1679 60.728 30.3519 59.896C29.5359 59.056 29.1279 58.024 29.1279 56.8C29.1279 55.584 29.5359 54.556 30.3519 53.716C31.1679 52.876 32.2039 52.456 33.4599 52.456C34.1879 52.456 34.8039 52.568 35.3079 52.792C35.8199 53.016 36.2999 53.34 36.7479 53.764L35.7999 54.856C35.0479 54.16 34.2639 53.812 33.4479 53.812C32.6479 53.812 31.9839 54.1 31.4559 54.676C30.9359 55.252 30.6759 55.96 30.6759 56.8C30.6759 57.632 30.9399 58.34 31.4679 58.924C31.9959 59.5 32.6559 59.788 33.4479 59.788C33.9279 59.788 34.3519 59.7 34.7199 59.524C35.0879 59.34 35.4679 59.064 35.8599 58.696L36.8079 59.656C36.3359 60.152 35.8359 60.524 35.3079 60.772C34.7799 61.02 34.1439 61.144 33.3999 61.144ZM38.3593 61V52.6H39.8353V56.092H43.8433V52.6H45.3193V61H43.8433V57.46H39.8353V61H38.3593ZM46.7565 61L50.4525 52.54H51.8205L55.5165 61H53.9565L53.1045 58.972H49.1325L48.2685 61H46.7565ZM49.6725 57.664H52.5645L51.1125 54.304L49.6725 57.664ZM57.9428 61V53.968H55.2788V52.6H62.0948V53.968H59.4308V61H57.9428Z" fill="#181818"/>
<rect x="47" y="13" width="16" height="16" rx="8" fill="url(#paint0_linear)"/>
<path d="M54.602 24V19.059L53.504 19.329L53.216 18.195L55.025 17.655H55.97V24H54.602Z" fill="white"/>
<defs>
<linearGradient id="paint0_linear" x1="60.9259" y1="13" x2="49.5185" y2="29" gradientUnits="userSpaceOnUse">
<stop stop-color="#FFB75E"/>
<stop offset="1" stop-color="#ED8F03"/>
</linearGradient>
</defs>
</svg>
