<svg width="32" height="9" viewBox="0 0 32 9" fill="none" xmlns="http://www.w3.org/2000/svg">
<path d="M0.410078 9V0.599999H6.66208V1.944H1.88608V4.236H6.12208V5.58H1.88608V9H0.410078ZM8.28508 9V0.599999H14.5131V1.92H9.76108V4.104H13.9731V5.424H9.76108V7.68H14.5731V9H8.28508ZM16.3241 9V0.599999H22.5521V1.92H17.8001V4.104H22.0121V5.424H17.8001V7.68H22.6121V9H16.3241ZM24.3632 9V0.599999H27.4952C28.8072 0.599999 29.8792 1 30.7112 1.8C31.5432 2.592 31.9592 3.592 31.9592 4.8C31.9592 6 31.5392 7 30.6992 7.8C29.8672 8.6 28.7992 9 27.4952 9H24.3632ZM25.8392 7.656H27.4952C28.3672 7.656 29.0712 7.392 29.6072 6.864C30.1432 6.328 30.4112 5.64 30.4112 4.8C30.4112 3.968 30.1432 3.284 29.6072 2.748C29.0712 2.212 28.3672 1.944 27.4952 1.944H25.8392V7.656Z" fill="#181818"/>
</svg>
