<svg width="90" height="80" viewBox="0 0 90 80" fill="none" xmlns="http://www.w3.org/2000/svg">
<rect width="90" height="80" fill="white"/>
<path d="M37 29C39.3869 29 41.6761 29.9482 43.364 31.636C45.0518 33.3239 46 35.6131 46 38" stroke="#181818" stroke-width="2" stroke-linecap="round" stroke-linejoin="round"/>
<path d="M37 22C41.2435 22 45.3131 23.6857 48.3137 26.6863C51.3143 29.6869 53 33.7565 53 38" stroke="#181818" stroke-width="2" stroke-linecap="round" stroke-linejoin="round"/>
<path d="M38 38C38.5523 38 39 37.5523 39 37C39 36.4477 38.5523 36 38 36C37.4477 36 37 36.4477 37 37C37 37.5523 37.4477 38 38 38Z" stroke="#181818" stroke-width="2" stroke-linecap="round" stroke-linejoin="round"/>
<path d="M29.4101 61V52.6H35.6621V53.944H30.8861V56.236H35.1221V57.58H30.8861V61H29.4101ZM37.2851 61V52.6H43.5131V53.92H38.7611V56.104H42.9731V57.424H38.7611V59.68H43.5731V61H37.2851ZM45.3241 61V52.6H51.5521V53.92H46.8001V56.104H51.0121V57.424H46.8001V59.68H51.6121V61H45.3241ZM53.3632 61V52.6H56.4952C57.8072 52.6 58.8792 53 59.7112 53.8C60.5432 54.592 60.9592 55.592 60.9592 56.8C60.9592 58 60.5392 59 59.6992 59.8C58.8672 60.6 57.7992 61 56.4952 61H53.3632ZM54.8392 59.656H56.4952C57.3672 59.656 58.0712 59.392 58.6072 58.864C59.1432 58.328 59.4112 57.64 59.4112 56.8C59.4112 55.968 59.1432 55.284 58.6072 54.748C58.0712 54.212 57.3672 53.944 56.4952 53.944H54.8392V59.656Z" fill="#181818"/>
</svg>
