<svg width="90" height="80" viewBox="0 0 90 80" fill="none" xmlns="http://www.w3.org/2000/svg">
<rect width="90" height="80" fill="white"/>
<path d="M53 25H37C35.8954 25 35 25.8954 35 27V37C35 38.1046 35.8954 39 37 39H53C54.1046 39 55 38.1046 55 37V27C55 25.8954 54.1046 25 53 25Z" stroke="#181818" stroke-width="2" stroke-linecap="round" stroke-linejoin="round"/>
<path d="M49 39V23C49 22.4696 48.7893 21.9609 48.4142 21.5858C48.0391 21.2107 47.5304 21 47 21H43C42.4696 21 41.9609 21.2107 41.5858 21.5858C41.2107 21.9609 41 22.4696 41 23V39" stroke="#181818" stroke-width="2" stroke-linecap="round" stroke-linejoin="round"/>
<path d="M31.3228 61.12C30.1948 61.12 29.2988 60.668 28.6348 59.764L29.6068 58.768C30.1268 59.424 30.6908 59.752 31.2988 59.752C31.7068 59.752 32.0308 59.616 32.2708 59.344C32.5108 59.064 32.6308 58.652 32.6308 58.108V52.6H34.1428V58.144C34.1428 59.112 33.8828 59.856 33.3628 60.376C32.8668 60.872 32.1868 61.12 31.3228 61.12ZM43.3299 59.872C42.4979 60.72 41.4459 61.144 40.1739 61.144C38.9019 61.144 37.8539 60.724 37.0299 59.884C36.2059 59.044 35.7939 58.016 35.7939 56.8C35.7939 55.6 36.2099 54.576 37.0419 53.728C37.8739 52.88 38.9259 52.456 40.1979 52.456C41.4699 52.456 42.5179 52.876 43.3419 53.716C44.1659 54.556 44.5779 55.584 44.5779 56.8C44.5779 58 44.1619 59.024 43.3299 59.872ZM38.1459 58.924C38.6899 59.5 39.3739 59.788 40.1979 59.788C41.0219 59.788 41.6979 59.5 42.2259 58.924C42.7619 58.348 43.0299 57.64 43.0299 56.8C43.0299 55.968 42.7579 55.264 42.2139 54.688C41.6779 54.104 40.9979 53.812 40.1739 53.812C39.3499 53.812 38.6699 54.1 38.1339 54.676C37.6059 55.252 37.3419 55.96 37.3419 56.8C37.3419 57.632 37.6099 58.34 38.1459 58.924ZM46.3613 61V52.6H50.1293C51.0973 52.6 51.8293 52.848 52.3253 53.344C52.7013 53.72 52.8893 54.192 52.8893 54.76C52.8893 55.592 52.4893 56.216 51.6893 56.632C52.8013 57.008 53.3573 57.696 53.3573 58.696C53.3573 59.432 53.0773 60 52.5173 60.4C51.9573 60.8 51.2013 61 50.2493 61H46.3613ZM47.8133 56.14H49.8293C50.3173 56.14 50.7013 56.044 50.9813 55.852C51.2693 55.652 51.4133 55.36 51.4133 54.976C51.4133 54.64 51.2853 54.38 51.0293 54.196C50.7733 54.004 50.4093 53.908 49.9373 53.908H47.8133V56.14ZM47.8133 59.692H50.2613C50.7733 59.692 51.1693 59.592 51.4492 59.392C51.7373 59.192 51.8813 58.9 51.8813 58.516C51.8813 57.764 51.3053 57.388 50.1533 57.388H47.8133V59.692ZM57.9614 61.12C56.6254 61.12 55.4574 60.672 54.4574 59.776L55.3454 58.72C56.1854 59.448 57.0694 59.812 57.9974 59.812C58.4534 59.812 58.8134 59.716 59.0774 59.524C59.3494 59.324 59.4854 59.06 59.4854 58.732C59.4854 58.42 59.3574 58.172 59.1014 57.988C58.8454 57.796 58.3414 57.612 57.5894 57.436C56.6134 57.204 55.9014 56.912 55.4534 56.56C55.0134 56.2 54.7934 55.652 54.7934 54.916C54.7934 54.196 55.0614 53.612 55.5974 53.164C56.1334 52.708 56.8214 52.48 57.6614 52.48C58.8134 52.48 59.8294 52.832 60.7094 53.536L59.9174 54.652C59.1414 54.076 58.3814 53.788 57.6374 53.788C57.2134 53.788 56.8774 53.884 56.6294 54.076C56.3894 54.268 56.2694 54.512 56.2694 54.808C56.2694 55.136 56.4014 55.392 56.6654 55.576C56.9374 55.752 57.4694 55.936 58.2614 56.128C59.1894 56.352 59.8694 56.652 60.3014 57.028C60.7414 57.404 60.9614 57.932 60.9614 58.612C60.9614 59.388 60.6854 60 60.1334 60.448C59.5814 60.896 58.8574 61.12 57.9614 61.12Z" fill="#181818"/>
</svg>
