<svg width="90" height="80" viewBox="0 0 90 80" fill="none" xmlns="http://www.w3.org/2000/svg">
<rect width="90" height="80" fill="white"/>
<path d="M50 39V37C50 35.9391 49.5786 34.9217 48.8284 34.1716C48.0783 33.4214 47.0609 33 46 33H38C36.9391 33 35.9217 33.4214 35.1716 34.1716C34.4214 34.9217 34 35.9391 34 37V39" stroke="#181818" stroke-width="2" stroke-linecap="round" stroke-linejoin="round"/>
<path d="M42 29C44.2091 29 46 27.2091 46 25C46 22.7909 44.2091 21 42 21C39.7909 21 38 22.7909 38 25C38 27.2091 39.7909 29 42 29Z" stroke="#181818" stroke-width="2" stroke-linecap="round" stroke-linejoin="round"/>
<path d="M56 39V37C55.9993 36.1137 55.7044 35.2528 55.1614 34.5523C54.6184 33.8519 53.8581 33.3516 53 33.13" stroke="#181818" stroke-width="2" stroke-linecap="round" stroke-linejoin="round"/>
<path d="M49 21.13C49.8604 21.3503 50.623 21.8507 51.1676 22.5523C51.7122 23.2539 52.0078 24.1168 52.0078 25.005C52.0078 25.8932 51.7122 26.7561 51.1676 27.4577C50.623 28.1593 49.8604 28.6597 49 28.88" stroke="#181818" stroke-width="2" stroke-linecap="round" stroke-linejoin="round"/>
<path d="M13.1796 61V52.6H14.5476L19.0476 58.408V52.6H20.4996V61H19.2636L14.6316 55.024V61H13.1796ZM22.6601 61V52.6H28.8881V53.92H24.1361V56.104H28.3481V57.424H24.1361V59.68H28.9481V61H22.6601ZM32.7631 61V53.968H30.0991V52.6H36.9151V53.968H34.2511V61H32.7631ZM40.7604 61.06L37.8324 52.6H39.4284L41.4324 58.828L43.4964 52.576H44.7444L46.8084 58.828L48.8124 52.6H50.3604L47.4324 61.06H46.1604L44.0964 55.024L42.0324 61.06H40.7604ZM58.5819 59.872C57.7499 60.72 56.6979 61.144 55.4259 61.144C54.1539 61.144 53.1059 60.724 52.2819 59.884C51.4579 59.044 51.0459 58.016 51.0459 56.8C51.0459 55.6 51.4619 54.576 52.2939 53.728C53.1259 52.88 54.1779 52.456 55.4499 52.456C56.7219 52.456 57.7699 52.876 58.5939 53.716C59.4179 54.556 59.8299 55.584 59.8299 56.8C59.8299 58 59.4139 59.024 58.5819 59.872ZM53.3979 58.924C53.9419 59.5 54.6259 59.788 55.4499 59.788C56.2739 59.788 56.9499 59.5 57.4779 58.924C58.0139 58.348 58.2819 57.64 58.2819 56.8C58.2819 55.968 58.0099 55.264 57.4659 54.688C56.9299 54.104 56.2499 53.812 55.4259 53.812C54.6019 53.812 53.9219 54.1 53.3859 54.676C52.8579 55.252 52.5939 55.96 52.5939 56.8C52.5939 57.632 52.8619 58.34 53.3979 58.924ZM61.6132 61V52.6H65.3572C66.3332 52.6 67.0972 52.844 67.6492 53.332C68.2012 53.812 68.4772 54.46 68.4772 55.276C68.4772 55.94 68.2972 56.488 67.9372 56.92C67.5772 57.344 67.0892 57.644 66.4732 57.82L68.7412 61H67.0012L64.9132 58.072H63.0892V61H61.6132ZM63.0892 56.764H65.2492C65.7772 56.764 66.1972 56.636 66.5092 56.38C66.8212 56.124 66.9772 55.776 66.9772 55.336C66.9772 54.888 66.8252 54.544 66.5212 54.304C66.2172 54.064 65.7892 53.944 65.2372 53.944H63.0892V56.764ZM70.2851 61V52.6H71.7611V56.824L75.7571 52.6H77.5691L74.0771 56.212L77.7251 61H75.9371L73.0691 57.22L71.7611 58.564V61H70.2851Z" fill="#181818"/>
</svg>
