<svg width="90" height="80" viewBox="0 0 90 80" fill="none" xmlns="http://www.w3.org/2000/svg">
<rect width="90" height="80" fill="white"/>
<path d="M51 26C51 24.4087 50.3679 22.8826 49.2426 21.7574C48.1174 20.6321 46.5913 20 45 20C43.4087 20 41.8826 20.6321 40.7574 21.7574C39.6321 22.8826 39 24.4087 39 26C39 33 36 35 36 35H54C54 35 51 33 51 26Z" stroke="#181818" stroke-width="2" stroke-linecap="round" stroke-linejoin="round"/>
<path d="M46.73 39C46.5542 39.3031 46.3019 39.5547 45.9982 39.7295C45.6946 39.9044 45.3504 39.9965 45 39.9965C44.6496 39.9965 44.3054 39.9044 44.0018 39.7295C43.6982 39.5547 43.4458 39.3031 43.27 39" stroke="#181818" stroke-width="2" stroke-linecap="round" stroke-linejoin="round"/>
<path d="M18.3886 61V52.6H19.7566L24.2566 58.408V52.6H25.7086V61H24.4726L19.8406 55.024V61H18.3886ZM35.0331 59.872C34.2011 60.72 33.1491 61.144 31.8771 61.144C30.6051 61.144 29.5571 60.724 28.7331 59.884C27.9091 59.044 27.4971 58.016 27.4971 56.8C27.4971 55.6 27.9131 54.576 28.7451 53.728C29.5771 52.88 30.6291 52.456 31.9011 52.456C33.1731 52.456 34.2211 52.876 35.0451 53.716C35.8691 54.556 36.2811 55.584 36.2811 56.8C36.2811 58 35.8651 59.024 35.0331 59.872ZM29.8491 58.924C30.3931 59.5 31.0771 59.788 31.9011 59.788C32.7251 59.788 33.4011 59.5 33.9291 58.924C34.4651 58.348 34.7331 57.64 34.7331 56.8C34.7331 55.968 34.4611 55.264 33.9171 54.688C33.3811 54.104 32.7011 53.812 31.8771 53.812C31.0531 53.812 30.3731 54.1 29.8371 54.676C29.3091 55.252 29.0451 55.96 29.0451 56.8C29.0451 57.632 29.3131 58.34 29.8491 58.924ZM39.6713 61V53.968H37.0073V52.6H43.8233V53.968H41.1593V61H39.6713ZM45.4726 61V52.6H46.9486V61H45.4726ZM53.0972 61.144C51.8812 61.144 50.8652 60.728 50.0492 59.896C49.2332 59.056 48.8252 58.024 48.8252 56.8C48.8252 55.584 49.2332 54.556 50.0492 53.716C50.8652 52.876 51.9012 52.456 53.1572 52.456C53.8852 52.456 54.5012 52.568 55.0052 52.792C55.5172 53.016 55.9972 53.34 56.4452 53.764L55.4972 54.856C54.7452 54.16 53.9612 53.812 53.1452 53.812C52.3452 53.812 51.6812 54.1 51.1532 54.676C50.6332 55.252 50.3732 55.96 50.3732 56.8C50.3732 57.632 50.6372 58.34 51.1652 58.924C51.6932 59.5 52.3532 59.788 53.1452 59.788C53.6252 59.788 54.0492 59.7 54.4172 59.524C54.7852 59.34 55.1652 59.064 55.5572 58.696L56.5052 59.656C56.0332 60.152 55.5332 60.524 55.0052 60.772C54.4772 61.02 53.8412 61.144 53.0972 61.144ZM58.0566 61V52.6H64.2846V53.92H59.5326V56.104H63.7446V57.424H59.5326V59.68H64.3446V61H58.0566ZM69.0356 61.12C67.6996 61.12 66.5316 60.672 65.5316 59.776L66.4196 58.72C67.2596 59.448 68.1436 59.812 69.0716 59.812C69.5276 59.812 69.8876 59.716 70.1516 59.524C70.4236 59.324 70.5596 59.06 70.5596 58.732C70.5596 58.42 70.4316 58.172 70.1756 57.988C69.9196 57.796 69.4156 57.612 68.6636 57.436C67.6876 57.204 66.9756 56.912 66.5276 56.56C66.0876 56.2 65.8676 55.652 65.8676 54.916C65.8676 54.196 66.1356 53.612 66.6716 53.164C67.2076 52.708 67.8956 52.48 68.7356 52.48C69.8876 52.48 70.9036 52.832 71.7836 53.536L70.9916 54.652C70.2156 54.076 69.4556 53.788 68.7116 53.788C68.2876 53.788 67.9516 53.884 67.7036 54.076C67.4636 54.268 67.3436 54.512 67.3436 54.808C67.3436 55.136 67.4756 55.392 67.7396 55.576C68.0116 55.752 68.5436 55.936 69.3356 56.128C70.2636 56.352 70.9436 56.652 71.3756 57.028C71.8156 57.404 72.0356 57.932 72.0356 58.612C72.0356 59.388 71.7596 60 71.2076 60.448C70.6556 60.896 69.9316 61.12 69.0356 61.12Z" fill="#181818"/>
</svg>
