<svg width="91" height="80" viewBox="0 0 91 80" fill="none" xmlns="http://www.w3.org/2000/svg">
<rect width="90" height="80" fill="white"/>
<path d="M45 31C45.5523 31 46 30.5523 46 30C46 29.4477 45.5523 29 45 29C44.4477 29 44 29.4477 44 30C44 30.5523 44.4477 31 45 31Z" stroke="#181818" stroke-width="2" stroke-linecap="round" stroke-linejoin="round"/>
<path d="M52 31C52.5523 31 53 30.5523 53 30C53 29.4477 52.5523 29 52 29C51.4477 29 51 29.4477 51 30C51 30.5523 51.4477 31 52 31Z" stroke="#181818" stroke-width="2" stroke-linecap="round" stroke-linejoin="round"/>
<path d="M38 31C38.5523 31 39 30.5523 39 30C39 29.4477 38.5523 29 38 29C37.4477 29 37 29.4477 37 30C37 30.5523 37.4477 31 38 31Z" stroke="#181818" stroke-width="2" stroke-linecap="round" stroke-linejoin="round"/>
<path d="M31.5702 59.872C30.7382 60.72 29.6862 61.144 28.4142 61.144C27.1422 61.144 26.0942 60.724 25.2702 59.884C24.4462 59.044 24.0342 58.016 24.0342 56.8C24.0342 55.6 24.4502 54.576 25.2822 53.728C26.1142 52.88 27.1662 52.456 28.4382 52.456C29.7102 52.456 30.7582 52.876 31.5822 53.716C32.4062 54.556 32.8182 55.584 32.8182 56.8C32.8182 58 32.4022 59.024 31.5702 59.872ZM26.3862 58.924C26.9302 59.5 27.6142 59.788 28.4382 59.788C29.2622 59.788 29.9382 59.5 30.4662 58.924C31.0022 58.348 31.2702 57.64 31.2702 56.8C31.2702 55.968 30.9982 55.264 30.4542 54.688C29.9182 54.104 29.2382 53.812 28.4142 53.812C27.5902 53.812 26.9102 54.1 26.3742 54.676C25.8462 55.252 25.5822 55.96 25.5822 56.8C25.5822 57.632 25.8502 58.34 26.3862 58.924ZM36.2085 61V53.968H33.5445V52.6H40.3605V53.968H37.6965V61H36.2085ZM41.9257 61V52.6H43.4017V56.092H47.4097V52.6H48.8857V61H47.4097V57.46H43.4017V61H41.9257ZM51.0429 61V52.6H57.2709V53.92H52.5189V56.104H56.7309V57.424H52.5189V59.68H57.3309V61H51.0429ZM59.082 61V52.6H62.826C63.802 52.6 64.566 52.844 65.118 53.332C65.67 53.812 65.946 54.46 65.946 55.276C65.946 55.94 65.766 56.488 65.406 56.92C65.046 57.344 64.558 57.644 63.942 57.82L66.21 61H64.47L62.382 58.072H60.558V61H59.082ZM60.558 56.764H62.718C63.246 56.764 63.666 56.636 63.978 56.38C64.29 56.124 64.446 55.776 64.446 55.336C64.446 54.888 64.294 54.544 63.99 54.304C63.686 54.064 63.258 53.944 62.706 53.944H60.558V56.764Z" fill="#181818"/>
<line x1="0.5" y1="2.18557e-08" x2="0.499997" y2="80" stroke="#F4F4F4"/>
<line x1="90.5" y1="2.18557e-08" x2="90.5" y2="80" stroke="#F4F4F4"/>
</svg>
