<svg width="31" height="10" viewBox="0 0 31 10" fill="none" xmlns="http://www.w3.org/2000/svg">
<path d="M5.39986 2.45455H6.42259C6.37571 1.13778 5.16122 0.153409 3.47372 0.153409C1.80327 0.153409 0.490767 1.125 0.490767 2.59091C0.490767 3.76705 1.34304 4.46591 2.70668 4.85795L3.78054 5.16477C4.70099 5.42045 5.51918 5.74432 5.51918 6.61364C5.51918 7.56818 4.59872 8.19886 3.38849 8.19886C2.34872 8.19886 1.42827 7.73864 1.34304 6.75H0.252131C0.354403 8.18182 1.51349 9.15341 3.38849 9.15341C5.39986 9.15341 6.5419 8.04545 6.5419 6.63068C6.5419 4.99432 4.99077 4.46591 4.08736 4.22727L3.20099 3.98864C2.55327 3.81818 1.51349 3.47727 1.51349 2.53977C1.51349 1.70455 2.28054 1.09091 3.43963 1.09091C4.49645 1.09091 5.29759 1.59375 5.39986 2.45455ZM9.14879 5.0625C9.14879 3.92045 9.87749 3.27273 10.8704 3.27273C11.8164 3.27273 12.3874 3.86932 12.3874 4.90909V9H13.3931V4.84091C13.3931 3.15767 12.4982 2.36932 11.1602 2.36932C10.1289 2.36932 9.54084 2.79972 9.23402 3.47727H9.14879V0.272727H8.14311V9H9.14879V5.0625ZM17.892 9.13636C19.6648 9.13636 20.858 7.78977 20.858 5.76136C20.858 3.71591 19.6648 2.36932 17.892 2.36932C16.1193 2.36932 14.9261 3.71591 14.9261 5.76136C14.9261 7.78977 16.1193 9.13636 17.892 9.13636ZM17.892 8.23295C16.5455 8.23295 15.9318 7.07386 15.9318 5.76136C15.9318 4.44886 16.5455 3.27273 17.892 3.27273C19.2386 3.27273 19.8523 4.44886 19.8523 5.76136C19.8523 7.07386 19.2386 8.23295 17.892 8.23295ZM23.6534 9H24.642L26.0739 3.97159H26.1761L27.608 9H28.5966L30.5909 2.45455H29.5341L28.1193 7.44886H28.0511L26.6705 2.45455H25.5966L24.1989 7.46591H24.1307L22.7159 2.45455H21.6591L23.6534 9Z" fill="black"/>
</svg>
